<svg width="20" height="20" viewBox="0 0 20 20" fill="none" xmlns="http://www.w3.org/2000/svg">
<path fill-rule="evenodd" clip-rule="evenodd" d="M0 1.47368C0 0.659791 0.659791 0 1.47368 0H12.5263C13.3402 0 14 0.659791 14 1.47368V5H9.97571V4.02429H4.02429V9.97571H5V14H1.47368C0.659791 14 0 13.3402 0 12.5263V1.47368ZM7.47368 6C6.65979 6 6 6.65979 6 7.47368V18.5263C6 19.3402 6.65979 20 7.47368 20H18.5263C19.3402 20 20 19.3402 20 18.5263V7.47368C20 6.65979 19.3402 6 18.5263 6H7.47368ZM10.0243 15.9757V10.0243H15.9757V15.9757H10.0243Z" fill="black"/>
</svg>
