<svg width="19" height="19" viewBox="0 0 19 19" fill="none" xmlns="http://www.w3.org/2000/svg">
<path fill-rule="evenodd" clip-rule="evenodd" d="M0.627596 15.342C-0.209199 16.1788 -0.209199 17.5355 0.627596 18.3723C1.46439 19.2091 2.8211 19.2091 3.6579 18.3723L9.11244 12.9178L14.5671 18.3724C15.4039 19.2092 16.7606 19.2092 17.5974 18.3724C18.4342 17.5356 18.4342 16.1789 17.5974 15.3421L12.1427 9.88746L17.5973 4.43292C18.4341 3.59613 18.4341 2.23942 17.5973 1.40262C16.7605 0.565826 15.4038 0.565825 14.567 1.40262L9.11245 6.85716L3.65799 1.4027C2.8212 0.565909 1.46448 0.565909 0.62769 1.4027C-0.209105 2.2395 -0.209105 3.59621 0.62769 4.43301L6.08214 9.88746L0.627596 15.342Z" fill="black"/>
</svg>
