<svg width="24" height="24" viewBox="0 0 24 24" fill="none" xmlns="http://www.w3.org/2000/svg">
<path fill-rule="evenodd" clip-rule="evenodd" d="M0 1.47368C0 0.659791 0.659791 0 1.47368 0H14.5263C15.3402 0 16 0.659791 16 1.47368V7H10.9757V5.02429H5.02429V10.9757H7V16H1.47368C0.659791 16 0 15.3402 0 14.5263V1.47368ZM9.47368 8C8.65979 8 8 8.65979 8 9.47368V22.5263C8 23.3402 8.65979 24 9.47368 24H22.5263C23.3402 24 24 23.3402 24 22.5263V9.47368C24 8.65979 23.3402 8 22.5263 8H9.47368ZM13.0243 18.9757V13.0243H18.9757V18.9757H13.0243Z" fill="black"/>
</svg>
