<svg width="80" height="87" viewBox="0 0 80 87" fill="none" xmlns="http://www.w3.org/2000/svg">
<path d="M71.0175 58.6517C70.337 57.8138 69.6363 56.9505 68.8949 56.0162C61.8616 47.1853 58.1749 35.5867 57.6722 33.9266C57.6722 33.9013 57.6672 33.8759 57.6672 33.8505V33.8302C57.6621 33.7794 56.9765 28.6099 56.8039 26.9239C56.6008 24.9587 55.7222 18.0322 52.9851 11.502C48.9836 1.99576 43.7125 0 39.9953 0C34.6429 0 30.3265 3.87465 27.173 11.5071C25.0199 16.7172 23.8265 22.7196 23.2069 26.838C22.9429 28.5797 22.3538 33.6376 22.3284 33.8508V33.861C22.3284 33.8813 22.3233 33.9016 22.3233 33.9219C21.8206 35.5824 18.1338 47.1806 11.1007 56.0115C10.3593 56.9408 9.65341 57.8092 8.97806 58.647C3.37688 65.5381 0 69.7021 0 79.9956C0 80.9554 0.776957 81.7323 1.73667 81.7323H38.2485V86.9475H41.727V81.7323H78.2544C79.2142 81.7323 79.9911 80.9553 79.9911 79.9956C79.9962 69.7073 76.6135 65.543 71.0175 58.6517Z" fill="white"/>
</svg>
