<svg width="15" height="17" viewBox="0 0 15 17" fill="none" xmlns="http://www.w3.org/2000/svg">
<path fill-rule="evenodd" clip-rule="evenodd" d="M12.326 10.8724C12.1524 10.6308 11.9238 10.434 11.659 10.2982C11.3943 10.1624 11.101 10.0916 10.8035 10.0916H10.766C10.4616 10.0976 10.1633 10.1776 9.89676 10.3247C9.63021 10.4718 9.40344 10.6815 9.23601 10.9357L8.89517 11.4549C8.87009 11.4934 8.83688 11.526 8.79786 11.5503C8.75885 11.5747 8.71498 11.5902 8.66934 11.5957C8.62409 11.6014 8.57816 11.5968 8.53491 11.5824C8.49165 11.568 8.45217 11.544 8.41934 11.5124C7.63186 10.73 6.90425 9.8896 6.24267 8.99823C5.60863 8.08734 5.04425 7.1299 4.55434 6.13406C4.53517 6.09326 4.52523 6.04873 4.52523 6.00364C4.52523 5.95856 4.53517 5.91403 4.55434 5.87323C4.57439 5.83194 4.60331 5.7956 4.63904 5.76679C4.67477 5.73798 4.71641 5.71741 4.76101 5.70656L5.36101 5.54906C5.6556 5.47214 5.92702 5.32464 6.15182 5.1193C6.37663 4.91397 6.54804 4.65698 6.65126 4.37054C6.75448 4.08411 6.78639 3.77684 6.74424 3.47531C6.70209 3.17378 6.58715 2.88705 6.40934 2.63989L5.07601 0.782394C4.9127 0.553389 4.69966 0.364328 4.45287 0.229387C4.20608 0.0944458 3.93194 0.0171267 3.65101 0.00322748C3.36914 -0.0134967 3.0872 0.0349364 2.82707 0.14477C2.56694 0.254603 2.3356 0.422885 2.15101 0.636561L1.20017 1.71739C0.641621 2.34739 0.259866 3.11407 0.0937335 3.93946C-0.0723995 4.76486 -0.0169851 5.61953 0.254342 6.41656C1.49141 9.98291 3.73235 13.116 6.70767 15.4391C7.53973 16.0855 8.56403 16.4351 9.61767 16.4324C10.2363 16.4322 10.849 16.3131 11.4227 16.0816L12.8077 15.5224C13.0711 15.416 13.3069 15.2511 13.4973 15.0403C13.6876 14.8294 13.8276 14.578 13.9066 14.3051C13.9855 14.0322 14.0015 13.7449 13.9532 13.465C13.9049 13.185 13.7936 12.9197 13.6277 12.6891L12.326 10.8724ZM10.8452 8.7316C11.0088 8.7586 11.1764 8.71965 11.3114 8.62327C11.4463 8.5269 11.5376 8.38096 11.5652 8.21743C11.6049 7.9794 11.6266 7.73872 11.6302 7.49743C11.6395 6.62692 11.3913 5.77307 10.9169 5.04315C10.4424 4.31324 9.76282 3.73982 8.96349 3.39493C8.81143 3.32862 8.63927 3.32544 8.48486 3.38608C8.33046 3.44671 8.20646 3.5662 8.14016 3.71826C8.07385 3.87032 8.07067 4.04249 8.13131 4.19689C8.19194 4.3513 8.31143 4.47529 8.46349 4.5416C9.03765 4.78823 9.526 5.19922 9.86707 5.72283C10.2081 6.24643 10.3867 6.85924 10.3802 7.4841C10.3775 7.66122 10.3611 7.83786 10.331 8.01243C10.304 8.17595 10.343 8.34351 10.4394 8.47833C10.5358 8.61315 10.6817 8.70424 10.8452 8.7316ZM9.47499 1.06875C9.62901 1.00725 9.80114 1.00946 9.95353 1.07488C11.3948 1.68873 12.5847 2.77411 13.3282 4.15303C14.0716 5.53195 14.3245 7.12257 14.0452 8.66405C14.0191 8.80803 13.9433 8.93832 13.8311 9.03225C13.7189 9.12619 13.5774 9.17783 13.431 9.17821C13.3936 9.17816 13.3562 9.17481 13.3194 9.16821C13.1563 9.13879 13.0115 9.0458 12.917 8.90969C12.8224 8.77358 12.7858 8.60548 12.8152 8.44238C13.0439 7.17905 12.8364 5.87552 12.2268 4.74562C11.6172 3.61573 10.6416 2.72658 9.4602 2.22405C9.30781 2.15863 9.18765 2.03535 9.12615 1.88133C9.06466 1.72732 9.06686 1.55518 9.13228 1.4028C9.1977 1.25041 9.32098 1.13025 9.47499 1.06875Z" fill="black"/>
</svg>
