<svg width="89" height="91" viewBox="0 0 89 91" fill="none" xmlns="http://www.w3.org/2000/svg">
<path fill-rule="evenodd" clip-rule="evenodd" d="M22.948 16.2906L18.6926 24.0703L14.4371 16.2906L6.65741 12.0351L14.4371 7.77972L18.6926 0L22.948 7.77972L30.7277 12.0351L22.948 16.2906ZM18.6926 7.07954L16.9405 10.2838L13.7363 12.0358L16.9405 13.7878L18.6926 16.992L20.4446 13.7878L23.6488 12.0358L20.4446 10.2838L18.6926 7.07954ZM83.2519 1.8429C80.4436 1.8429 78.1534 4.12804 78.1534 6.94137C78.1534 9.74963 80.4386 12.0398 83.2519 12.0398C86.0601 12.0398 88.3504 9.75469 88.3504 6.94137C88.3453 4.12804 86.0601 1.8429 83.2519 1.8429ZM83.2519 8.63748C82.3175 8.63748 81.5507 7.87575 81.5507 6.94137C81.5507 6.00191 82.3124 5.24019 83.2519 5.24019C84.1863 5.24019 84.9531 6.00191 84.9531 6.94137C84.948 7.87574 84.1863 8.63748 83.2519 8.63748ZM64.8789 61.0644H69.1141V57.6671H66.9813C67.8141 56.0573 68.4793 54.351 68.9617 52.5686H72.1762V49.1713H69.6423C69.7895 48.0592 69.8657 46.9267 69.8657 45.774C69.8657 39.4669 67.6365 33.5053 63.5485 28.783H65.3563V25.3857H59.9988C55.4235 21.7548 49.8019 19.7795 43.871 19.7795C36.9293 19.7795 30.4043 22.481 25.4929 27.3916C23.5582 29.3264 21.9688 31.5151 20.745 33.8815H17.7235V37.2788H19.2926C18.7238 38.9241 18.3227 40.6303 18.0992 42.3773H14.9915V45.7745H17.881C17.881 60.1044 29.5404 71.7693 43.8758 71.7693C52.4933 71.7643 60.1469 67.5441 64.8789 61.0644ZM7.64777 69.0672C5.60638 69.0672 3.6868 69.8645 2.23951 71.3067C0.79729 72.7489 0 74.6684 0 76.715C0 80.9298 3.42771 84.3575 7.64257 84.3575C11.8574 84.3575 15.2851 80.9298 15.2851 76.715C15.2953 72.495 11.8626 69.0672 7.64777 69.0672ZM7.64777 80.9601C5.30673 80.9601 3.40249 79.0559 3.40249 76.7148C3.40249 75.5824 3.84428 74.516 4.64663 73.7137C5.44898 72.9113 6.51538 72.4695 7.65288 72.4695C9.99392 72.4695 11.8982 74.3738 11.8982 76.7148C11.8982 79.0558 9.98868 80.9601 7.64777 80.9601ZM20.6943 84.241C20.6943 80.9606 23.3604 78.2946 26.6408 78.2946C29.9212 78.2946 32.5873 80.9606 32.5873 84.241C32.5873 87.5214 29.9212 90.1875 26.6408 90.1875C23.3604 90.1875 20.6943 87.5214 20.6943 84.241ZM24.0916 84.2411C24.0916 85.6477 25.2342 86.7903 26.6408 86.7903C28.0474 86.7903 29.19 85.6427 29.19 84.2411C29.19 82.8345 28.0474 81.692 26.6408 81.692C25.2342 81.692 24.0916 82.8345 24.0916 84.2411ZM42.4786 12.035C42.4786 14.8483 40.1883 17.1335 37.3801 17.1335C34.5668 17.1335 32.2816 14.8483 32.2816 12.035C32.2816 9.22167 34.5718 6.93652 37.3801 6.93652C40.1934 6.93652 42.4786 9.22674 42.4786 12.035ZM39.0813 12.0401C39.0813 11.1006 38.3145 10.3389 37.3801 10.3389C36.4406 10.3389 35.6789 11.1006 35.6789 12.0401C35.6789 12.9745 36.4457 13.7362 37.3801 13.7362C38.3195 13.7362 39.0813 12.9744 39.0813 12.0401ZM79.6665 18.4738C79.6665 13.7816 75.8629 9.97803 71.1707 9.97803C66.4785 9.97803 62.6749 13.7816 62.6749 18.4738C62.6749 23.166 66.4785 26.9695 71.1707 26.9695C72.4352 26.9695 73.6336 26.6903 74.7153 26.1926C78.4122 31.9918 80.3926 38.7304 80.3926 45.7732C80.3926 55.5283 76.5942 64.6999 69.693 71.6003C62.7969 78.4964 53.6263 82.2949 43.8711 82.2949V85.6922C54.5351 85.6922 64.5593 81.5383 72.1006 74.0023C79.6416 66.4613 83.7955 56.4367 83.7955 45.7728C83.7955 37.9981 81.5866 30.5641 77.4631 24.1811C78.8342 22.6728 79.6665 20.6675 79.6665 18.4738Z" fill="white"/>
</svg>
