<svg width="73" height="87" viewBox="0 0 73 87" fill="none" xmlns="http://www.w3.org/2000/svg">
<path fill-rule="evenodd" clip-rule="evenodd" d="M60.7595 11.441C68.1228 18.8042 72.1853 28.5949 72.1954 39.0101L72.1953 63.9901L72.1902 84.7641C72.1902 85.6781 71.4488 86.4246 70.5297 86.4246H5.70779C5.62654 86.4246 5.5453 86.4144 5.46912 86.4042C5.46405 86.4042 5.45897 86.403 5.45389 86.4017C5.44881 86.4004 5.44373 86.3992 5.43865 86.3992C5.36249 86.3839 5.28632 86.3687 5.21522 86.3433C5.20854 86.3411 5.20283 86.3398 5.19767 86.3387C5.19107 86.3372 5.18537 86.336 5.17968 86.3332C5.10859 86.3128 5.03749 86.2824 4.9664 86.2468C4.96132 86.2417 4.95116 86.2367 4.94101 86.2316C4.86991 86.191 4.8039 86.1503 4.73788 86.1046C4.73788 86.0996 4.7328 86.0996 4.7328 86.0996C4.72265 86.0945 4.71757 86.0894 4.71249 86.0843C4.68083 86.0617 4.64513 86.031 4.61259 86.0031L4.60077 85.9929C4.59315 85.9878 4.5868 85.9815 4.58045 85.9751C4.57411 85.9688 4.56776 85.9624 4.56015 85.9574L4.56006 85.9573C4.52455 85.9218 4.49411 85.8913 4.46366 85.8558C4.45858 85.8507 4.45478 85.8457 4.45097 85.8406C4.44716 85.8355 4.44335 85.8304 4.43827 85.8253C4.39765 85.7796 4.3621 85.7339 4.33163 85.6831C4.32148 85.673 4.3164 85.6628 4.31132 85.6527L4.31128 85.6526C4.2859 85.612 4.26053 85.5714 4.24022 85.5308C4.23769 85.5232 4.23388 85.5156 4.23007 85.5079C4.22626 85.5003 4.22245 85.4927 4.21991 85.4851L4.21985 85.485C4.19956 85.4444 4.17927 85.4038 4.16405 85.3581C4.16151 85.3531 4.15898 85.3467 4.15644 85.3404C4.1539 85.334 4.15136 85.3277 4.14882 85.3226C4.12851 85.2667 4.11327 85.2109 4.09804 85.155C4.09804 85.1449 4.09804 85.1296 4.09296 85.1195C4.09074 85.1061 4.08755 85.0918 4.08423 85.077C4.07997 85.0579 4.0755 85.0379 4.07265 85.0179C4.06757 85.0077 4.06757 84.9925 4.06757 84.9823C4.06757 84.9753 4.06647 84.9671 4.0653 84.9584C4.06395 84.9483 4.06249 84.9374 4.06249 84.9265L4.0611 84.9141C4.05652 84.8733 4.05233 84.836 4.05233 84.7945V84.764V63.99C4.05233 63.2638 4.51953 62.6239 5.20507 62.4056L8.59222 61.3188C3.04174 55.2101 0 47.3692 0 39.0563C0 30.7636 3.0316 22.9328 8.56167 16.8289L4.34681 12.6141L5.51985 11.441C12.8987 4.0625 22.7092 0 33.1397 0C43.5748 0 53.3809 4.0625 60.7595 11.441ZM10.77 19.0435C5.82392 24.5529 3.11732 31.5961 3.11732 39.0609C3.11732 47.0689 6.23485 54.5999 11.8919 60.2672L26.8523 55.4734V35.1258L10.77 19.0435ZM16.3461 83.1036H68.8739L68.8687 66.2699L16.3461 83.1036ZM53.8069 67.6048L68.8739 62.7755L68.873 45.4949L59.9 48.369L7.37742 65.2027V82.4836L28.0097 75.872L53.8069 67.6048ZM66.0505 42.9054L68.8739 42.0015L68.8754 39.0659C68.8703 29.5252 65.1531 20.5363 58.4093 13.7926C51.6597 7.04375 42.6869 3.32654 33.1399 3.32654C24.1517 3.32654 15.6708 6.62229 9.07432 12.6449L30.1785 33.7491L30.1734 54.4022L34.2309 53.1022L43.8946 50.0046L66.0505 42.9054ZM33.4946 37.4656C33.4946 33.3421 36.8512 29.9855 40.9746 29.9855C45.0981 29.9855 48.4547 33.3421 48.4547 37.4656C48.4547 41.5891 45.0981 44.9457 40.9746 44.9457C36.8512 44.9457 33.4946 41.5891 33.4946 37.4656ZM36.8207 37.4656C36.8207 39.7558 38.6844 41.6195 40.9746 41.6195C43.2648 41.6195 45.1285 39.7558 45.1285 37.4656C45.1285 35.1754 43.2648 33.3117 40.9746 33.3117C38.6844 33.3117 36.8207 35.1754 36.8207 37.4656Z" fill="black"/>
</svg>
