<svg width="83" height="83" viewBox="0 0 83 83" fill="none" xmlns="http://www.w3.org/2000/svg">
<path fill-rule="evenodd" clip-rule="evenodd" d="M74.5872 0L78.2028 4.33667L82.5395 7.95223L78.2028 11.5678L74.5872 15.9045L70.9717 11.5678L66.635 7.95223L70.9717 4.33667L74.5872 0ZM74.5923 10.9941L75.9735 9.33361L77.629 7.95236L75.9685 6.57111L74.5872 4.91062L73.206 6.57111L71.5455 7.95236L73.206 9.33361L74.5923 10.9941ZM15.7014 26.8891L20.3835 21.2677L26.005 16.5805L20.3835 11.8984L15.7014 6.27698L11.0193 11.8984L5.39789 16.5805L11.0193 21.2677L15.7014 26.8891ZM13.2487 14.1329L15.7014 11.1876L18.1541 14.1329L21.0994 16.5856L18.1541 19.0383L15.7014 21.9836L13.2487 19.0383L10.3034 16.5856L13.2487 14.1329ZM67.6611 36.0541L71.0482 32.667C74.7197 28.9955 74.7248 23.0134 71.0482 19.342C67.3717 15.6705 61.3947 15.6705 57.7232 19.342L51.792 25.2732C49.1666 24.542 46.4548 24.1713 43.7127 24.1713C27.3717 24.1713 14.0259 37.2623 13.6242 53.5123L0.58914 64.0393C0.0711679 64.4557 -0.126872 65.1565 0.0965593 65.7862C0.31999 66.416 0.91414 66.8323 1.57934 66.8323H3.14844L3.13828 80.9698C3.13828 81.8382 3.83906 82.5389 4.70738 82.5389H72.2307C73.099 82.5389 73.7998 81.8381 73.7998 80.9698L73.8049 55.8434H76.9432V52.7051H73.7592C73.4495 46.6723 71.3173 40.8585 67.6611 36.0541ZM29.0108 8.73459C29.0108 10.8268 25.8725 10.8268 25.8725 8.73459C25.8725 6.6373 29.0108 6.6373 29.0108 8.73459ZM76.9483 35.4301C76.9483 37.5223 73.8049 37.5223 73.8049 35.4301C73.8049 33.3379 76.9483 33.3379 76.9483 35.4301ZM9.425 33.8558C9.425 36.4558 7.3125 38.5683 4.7125 38.5683C2.1125 38.5683 0 36.4558 0 33.8558C0 31.2558 2.1125 29.1433 4.7125 29.1433C7.3125 29.1433 9.425 31.2558 9.425 33.8558ZM6.2816 33.8558C6.2816 32.9926 5.58086 32.2867 4.7125 32.2867C3.84418 32.2867 3.13832 32.9925 3.1434 33.8558C3.1434 34.7191 3.84414 35.4249 4.7125 35.4249C5.57574 35.4249 6.2816 34.7242 6.2816 33.8558ZM48.6785 18.1544C51.2785 18.1544 53.391 16.0419 53.391 13.4419C53.391 10.8419 51.2785 8.72937 48.6785 8.72937C46.0785 8.72937 43.966 10.8419 43.966 13.4419C43.9711 16.0419 46.0836 18.1544 48.6785 18.1544ZM48.6785 11.8728C49.5469 11.8728 50.2476 12.5786 50.2476 13.4419C50.2476 14.3102 49.5417 15.011 48.6785 15.011C47.8101 15.011 47.1094 14.3051 47.1094 13.4419C47.1094 12.5786 47.8153 11.8728 48.6785 11.8728Z" fill="white"/>
</svg>
