<svg width="90" height="90" viewBox="0 0 90 90" fill="none" xmlns="http://www.w3.org/2000/svg">
<path fill-rule="evenodd" clip-rule="evenodd" d="M61.8418 8.63278H65.2948V6.04292H67.8847V2.58986H65.2948V0H61.8418V2.58986H59.2519V6.04292H61.8418V8.63278ZM75.0547 26.5637C77.9086 31.5701 79.4321 37.2525 79.4321 43.1686L79.4335 43.1693C79.4335 61.6787 64.3769 76.7356 45.8818 76.7457C39.6453 76.7457 33.8004 75.0344 28.7933 72.0586C24.5377 74.5163 21.1406 75.7503 18.6472 75.7503C18.4644 75.7503 18.2866 75.7452 18.114 75.73C17.9616 75.7148 17.8144 75.6995 17.6722 75.6792C16.6668 75.5269 15.8441 75.1308 15.1992 74.4858C12.9445 72.2315 13.7215 67.7425 17.4945 61.1205C15.1992 57.4896 13.6148 53.4271 12.848 49.1361L12.8328 49.0599C12.7871 48.8061 12.7464 48.5471 12.7058 48.2881L12.7058 48.2881C12.7033 48.2779 12.702 48.269 12.7007 48.2601C12.6995 48.2512 12.6982 48.2424 12.6957 48.2322C12.6296 47.826 12.5789 47.4197 12.5332 47.0084L12.527 46.9595C12.5088 46.8142 12.491 46.6721 12.4773 46.526C12.4621 46.3838 12.4468 46.2365 12.4367 46.0943L12.4139 45.8106L12.391 45.5256C12.3808 45.3986 12.3707 45.2666 12.3656 45.1346L12.3351 44.4846C12.3351 44.3779 12.33 44.2662 12.325 44.1595C12.3148 43.8346 12.3097 43.5096 12.3097 43.1795C12.3097 34.2108 15.8035 25.7816 22.141 19.4441C28.4785 13.1015 36.9083 9.61282 45.8712 9.61282C46.2114 9.61282 46.5466 9.6179 46.8817 9.62806C46.9198 9.63059 46.9566 9.63186 46.9934 9.63313C47.0303 9.6344 47.0671 9.63567 47.1052 9.63821C47.3997 9.64837 47.6942 9.65852 47.9888 9.67884C48.0065 9.67884 48.0243 9.68011 48.0421 9.68138C48.0599 9.68265 48.0776 9.68392 48.0954 9.68392C53.5338 10.0343 58.7237 11.6847 63.3041 14.4777C71.0329 9.68392 76.2024 8.50585 78.6805 10.9839C79.4422 11.7457 79.8586 12.7664 79.9297 14.0359C79.9399 14.2137 79.945 14.4016 79.9399 14.5945L79.9246 14.9144C79.8891 15.5594 79.7723 16.2602 79.5844 17.0168C79.554 17.1436 79.5185 17.2703 79.483 17.3971L79.483 17.3972L79.483 17.3973L79.4829 17.3973L79.4829 17.3974L79.4829 17.3975L79.4829 17.3976L79.4828 17.3977L79.4597 17.4807C79.4317 17.5817 79.403 17.6852 79.3711 17.7887C79.2899 18.0527 79.2036 18.3219 79.1071 18.5961C79.0563 18.7332 79.0055 18.8703 78.9547 19.0125C78.1473 21.1758 76.8473 23.6996 75.0547 26.5637ZM72.9677 23.3536C76.954 16.6048 76.7204 13.9083 76.238 13.4259C75.7606 12.9485 73.0896 12.7097 66.422 16.6199C67.3818 17.3665 68.306 18.1688 69.1946 19.027L69.2302 19.0625C69.303 19.1384 69.3777 19.2106 69.453 19.2836C69.5038 19.3327 69.5549 19.3821 69.606 19.4332C69.6565 19.4863 69.7082 19.5393 69.76 19.5923L69.7602 19.5926L69.7605 19.5928L69.7607 19.593L69.7609 19.5933C69.813 19.6466 69.865 19.6998 69.9157 19.7531C69.931 19.7734 69.9513 19.7938 69.9716 19.8141C71.0583 20.9313 72.0587 22.1145 72.9677 23.3536ZM45.8713 12.8419C37.7671 12.8419 30.1545 15.9955 24.4265 21.7235C18.6984 27.4513 15.5396 35.0686 15.5498 43.1683C15.5498 43.4679 15.5549 43.7624 15.565 44.057C15.565 44.1535 15.5701 44.255 15.5752 44.3515C15.5803 44.5495 15.5904 44.7476 15.6006 44.9405C15.6057 45.0624 15.6107 45.1792 15.6209 45.296C15.6311 45.4636 15.6463 45.6363 15.6615 45.8089L15.6636 45.8353L15.6636 45.8353C15.6731 45.9541 15.6829 46.0767 15.6971 46.1948C15.7047 46.2684 15.7136 46.342 15.7224 46.4156L15.7225 46.4157C15.7313 46.4894 15.7402 46.563 15.7478 46.6366C15.7885 47.0023 15.8342 47.3679 15.89 47.7284C15.8926 47.7386 15.8938 47.7475 15.8951 47.7564C15.8964 47.7652 15.8976 47.7741 15.9002 47.7843C15.9357 48.0179 15.9764 48.2515 16.017 48.48L16.0322 48.5562C16.6366 51.9129 17.7944 55.0766 19.4092 57.9558C20.0338 59.0678 20.7244 60.1343 21.476 61.155C23.4665 63.8516 25.8888 66.2026 28.6463 68.1121C28.7761 68.0297 28.9079 67.9474 29.0417 67.8638L29.1358 67.805L29.2861 67.7109C36.2437 63.3078 44.5207 56.4425 52.5847 48.3734C60.1712 40.7866 66.6916 33.0223 71.1045 26.3345C70.7846 25.8622 70.4596 25.3951 70.1193 24.9431C70.0863 24.8999 70.0521 24.8555 70.0178 24.8111C69.9835 24.7666 69.9492 24.7222 69.9162 24.6791L69.7029 24.4048C68.9666 23.4756 68.1694 22.5767 67.3163 21.7236C66.1127 20.52 64.8281 19.4334 63.4722 18.4634C62.4413 17.7271 61.3698 17.0568 60.2627 16.4575C58.2772 15.3861 56.18 14.5431 54.0014 13.9388C53.9963 13.9337 53.9963 13.9337 53.9913 13.9337L53.9911 13.9337C53.7626 13.8727 53.5342 13.8118 53.3057 13.756C53.2879 13.7509 53.2714 13.7471 53.2549 13.7433C53.2384 13.7395 53.2219 13.7357 53.2042 13.7306C52.5947 13.5833 51.9854 13.4513 51.3658 13.3396L51.3015 13.3276L51.3014 13.3276C51.1871 13.3063 51.0759 13.2856 50.9647 13.2685C50.8936 13.2583 50.8238 13.2469 50.754 13.2355C50.6841 13.224 50.6143 13.2126 50.5432 13.2025C50.3807 13.1771 50.2131 13.1517 50.0506 13.1314C49.9922 13.1238 49.9327 13.1162 49.8731 13.1085L49.7729 13.0957L49.6951 13.0857C49.6111 13.0763 49.5266 13.0665 49.4417 13.0567L49.4416 13.0566L49.4416 13.0566L49.4415 13.0566L49.4415 13.0566L49.4415 13.0566L49.4414 13.0566C49.2495 13.0343 49.0559 13.0119 48.8623 12.9943C48.7963 12.9841 48.7252 12.979 48.6541 12.9739L48.6541 12.9739L48.654 12.9739L48.654 12.9739L48.6539 12.9739L48.6539 12.9739L48.6538 12.9739L48.6538 12.9739C48.4254 12.9536 48.197 12.9333 47.9686 12.9181C47.867 12.9079 47.7705 12.9029 47.6689 12.8978L47.6651 12.8976L47.665 12.8976C47.4581 12.8875 47.2512 12.8774 47.0393 12.8673C46.9936 12.8648 46.9479 12.8635 46.9022 12.8622C46.8565 12.861 46.8107 12.8597 46.765 12.8572C46.4705 12.847 46.1709 12.8419 45.8713 12.8419ZM25.5538 69.889C23.3601 68.2233 21.4 66.3191 19.7089 64.2218C16.9667 69.4319 17.2003 71.6105 17.6269 72.0371C17.9976 72.4078 19.6887 72.6312 23.5378 70.8894L23.6747 70.8265C23.8292 70.7556 23.9867 70.6833 24.1472 70.605L24.2691 70.5441L24.4 70.4798C24.68 70.3423 24.971 70.1994 25.2695 70.0414C25.3049 70.0237 25.3403 70.0047 25.3758 69.9857L25.3759 69.9856L25.376 69.9856L25.376 69.9855C25.4116 69.9665 25.4472 69.9474 25.4827 69.9296L25.4989 69.9202L25.5183 69.9093C25.5297 69.903 25.5411 69.8966 25.5538 69.889ZM31.9471 70.1073C36.1163 72.2757 40.8542 73.4995 45.8714 73.4995C62.5933 73.4995 76.1971 59.8946 76.1971 43.1675C76.1971 38.3998 75.1054 33.799 73.0334 29.6501C68.5354 36.1956 62.243 43.5995 55.0219 50.8206C53.7371 52.1053 52.4422 53.3647 51.1473 54.5886C49.4817 56.1678 47.811 57.6913 46.1555 59.1436C41.6057 63.1401 37.1471 66.6237 33.0541 69.376C32.6834 69.6249 32.3127 69.8686 31.9471 70.1073ZM86.6845 26.1366L84.7244 28.4929L82.7592 26.1366L80.408 24.1765L82.7592 22.2113L84.7244 19.8601L86.6845 22.2113L89.0408 24.1765L86.6845 26.1366ZM63.5692 77.7096H67.0223V80.2995H69.6122V83.7525H67.0223V86.3424H63.5692V83.7525H60.9794V80.2995H63.5692V77.7096ZM22.1255 10.3592H25.5785V7.76932H28.1684V4.31626H25.5785V1.72639H22.1255V4.31626H19.5356V7.76932H22.1255V10.3592ZM16.1698 16.9242L12.1987 21.6926L8.22757 16.9242L3.45918 12.948L8.22757 8.9769L12.1987 4.2085L16.1698 8.9769L20.9382 12.948L16.1698 16.9242ZM12.1987 9.60675L10.6752 11.4297L8.85222 12.9532L10.6752 14.4767L12.1987 16.2997L13.7222 14.4767L15.5451 12.9532L13.7222 11.4297L12.1987 9.60675ZM79.5439 68.1026L75.5728 72.871L70.7993 76.8421L75.5677 80.8183L79.5439 85.5867L83.515 80.8183L88.2834 76.8421L83.515 72.871L79.5439 68.1026ZM81.0623 78.3654L79.5388 80.1884L78.0154 78.3654L76.1924 76.847L78.0154 75.3236L79.5388 73.5006L81.0623 75.3236L82.8853 76.847L81.0623 78.3654ZM4.29611 77.5779L7.87618 73.2818L11.4563 77.5779L15.7524 81.158L11.4563 84.738L7.87618 89.0341L4.29611 84.738L0 81.158L4.29611 77.5779ZM7.88125 83.6463L9.0086 82.2904L10.3645 81.163L9.0086 80.0357L7.88125 78.6798L6.7539 80.0357L5.398 81.163L6.7539 82.2904L7.88125 83.6463Z" fill="black"/>
</svg>
