<svg width="85" height="84" viewBox="0 0 85 84" fill="none" xmlns="http://www.w3.org/2000/svg">
<path fill-rule="evenodd" clip-rule="evenodd" d="M1.66556 0H0V83.2H1.66556C24.6041 83.2 43.2656 64.5385 43.2656 41.6C43.2656 18.6615 24.6041 0 1.66556 0ZM84.2 41.6C84.2 48.6992 73.5511 48.6992 73.5511 41.6C73.5511 34.5008 84.2 34.5008 84.2 41.6ZM46.9258 41.6005C46.9258 35.7302 51.7044 30.9517 57.5747 30.9517C63.45 30.9517 68.2285 35.7302 68.2285 41.6005C68.2285 47.4708 63.45 52.2493 57.5747 52.2493C51.7044 52.2493 46.9258 47.4708 46.9258 41.6005ZM50.4755 41.6001C50.4755 45.5153 53.6595 48.6993 57.5747 48.6993C61.4899 48.6993 64.6789 45.5153 64.6738 41.6001C64.6738 37.6849 61.4899 34.5009 57.5747 34.5009C53.6595 34.5009 50.4755 37.6849 50.4755 41.6001ZM43.376 62.8979H48.703V68.2249H43.376V62.8979ZM84.2048 9.65381H78.8777V14.9808H84.2048V9.65381Z" fill="white"/>
</svg>
