<svg width="14" height="14" viewBox="0 0 14 14" fill="none" xmlns="http://www.w3.org/2000/svg">
<path fill-rule="evenodd" clip-rule="evenodd" d="M0.5 2C0.5 1.17157 1.17157 0.5 2 0.5H12C12.8284 0.5 13.5 1.17157 13.5 2C13.5 2.82843 12.8284 3.5 12 3.5H2C1.17157 3.5 0.5 2.82843 0.5 2ZM0.5 7C0.5 6.17157 1.17157 5.5 2 5.5H12C12.8284 5.5 13.5 6.17157 13.5 7C13.5 7.82843 12.8284 8.5 12 8.5H2C1.17157 8.5 0.5 7.82843 0.5 7ZM2 10.5C1.17157 10.5 0.5 11.1716 0.5 12C0.5 12.8284 1.17157 13.5 2 13.5H12C12.8284 13.5 13.5 12.8284 13.5 12C13.5 11.1716 12.8284 10.5 12 10.5H2Z" fill="black"/>
</svg>
