<svg width="68" height="68" viewBox="0 0 68 68" fill="none" xmlns="http://www.w3.org/2000/svg">
<path d="M67.1224 33.5557C67.1224 27.6397 65.5989 21.9573 62.745 16.9508C64.5376 14.0868 65.8376 11.563 66.645 9.39967C66.6958 9.25748 66.7466 9.12038 66.7973 8.98327C66.8938 8.70904 66.9802 8.43991 67.0614 8.17585C67.102 8.04382 67.1376 7.91179 67.1731 7.78484C67.2087 7.65788 67.2442 7.53093 67.2747 7.40397C67.4626 6.64734 67.5794 5.94655 67.6149 5.30162C67.62 5.19498 67.6251 5.08834 67.6302 4.9817C67.6352 4.78873 67.6302 4.60084 67.62 4.4231C67.5489 3.15357 67.1325 2.13289 66.3708 1.37109C63.8927 -1.10697 58.7231 0.0710912 50.9944 4.86484C46.414 2.07192 41.2241 0.421441 35.7857 0.0710913C35.7501 0.0710913 35.7146 0.0660131 35.679 0.0660131C35.3845 0.0457006 35.09 0.0355437 34.7954 0.0253881C34.7193 0.020309 34.6482 0.0203097 34.572 0.0152319C34.2368 0.00507629 33.9017 0 33.5615 0C24.5986 0 16.1687 3.48868 9.83125 9.83125C3.49375 16.1687 0 24.5979 0 33.5666C0 33.8967 0.00507747 34.2217 0.0152344 34.5467C0.0203122 34.6534 0.0253906 34.7651 0.0253906 34.8717C0.0355462 35.0901 0.0457025 35.3034 0.0558594 35.5217C0.0609372 35.6538 0.0710944 35.7858 0.08125 35.9127C0.0964847 36.1006 0.111717 36.2936 0.126951 36.4815C0.137108 36.6237 0.152342 36.7709 0.167576 36.9131C0.18281 37.0756 0.203125 37.233 0.223438 37.3955C0.269142 37.8069 0.319922 38.2131 0.385938 38.6194C0.391017 38.6397 0.391016 38.6549 0.396094 38.6752C0.436719 38.9342 0.477344 39.1932 0.523047 39.4471C0.528125 39.4725 0.533202 39.4979 0.538281 39.5233C1.30507 43.8143 2.88946 47.8768 5.18474 51.5077C1.41175 58.1297 0.634741 62.6187 2.88946 64.873C3.53438 65.5179 4.35703 65.914 5.36245 66.0664C5.50464 66.0867 5.65191 66.1019 5.80424 66.1172C5.9769 66.1324 6.15463 66.1375 6.33745 66.1375C8.83085 66.1375 12.228 64.9035 16.4836 62.4457C21.4906 65.4216 27.3356 67.1329 33.5721 67.1329C52.0672 67.1227 67.1238 52.0659 67.1238 33.5565L67.1224 33.5557ZM63.9283 3.81305C64.4107 4.29547 64.6443 6.99194 60.658 13.7408C59.749 12.5017 58.7485 11.3185 57.6619 10.2013C57.6416 10.1809 57.6212 10.1606 57.606 10.1403C57.5044 10.0337 57.3978 9.92703 57.2962 9.8204C57.1693 9.69344 57.0423 9.57665 56.9205 9.44969C56.9103 9.43953 56.9002 9.42938 56.8849 9.41414C55.9963 8.55593 55.0721 7.75365 54.1123 7.00706C60.7798 3.09692 63.4509 3.33569 63.9283 3.81305ZM7.39919 54.609C9.09023 56.7063 11.0504 58.6105 13.2441 60.2762C13.2187 60.2914 13.1984 60.3016 13.173 60.3168C13.1019 60.3524 13.0308 60.393 12.9597 60.4285C12.6144 60.6114 12.2793 60.7739 11.9594 60.9313L11.8375 60.9922C11.6293 61.0938 11.4262 61.1852 11.2281 61.2766C7.37894 63.0183 5.6879 62.795 5.31714 62.4242C4.89058 61.9977 4.65695 59.8191 7.39919 54.609Z" fill="white"/>
</svg>
