<svg width="130" height="130" viewBox="0 0 130 130" fill="none" xmlns="http://www.w3.org/2000/svg">
<circle cx="65" cy="65" r="65" fill="#FBB93C"/>
<path d="M36.149 88.8973C38.3691 95.5366 51.7563 99 65.0011 99C78.246 99 91.6332 95.5366 93.8533 88.8973C106.738 85.9999 116 80.9642 116 73.9026C116 67.1926 107.175 61.619 91.7417 58.4813C88.7691 48.3168 79.7283 40.8071 68.3951 39.5471C70.7169 38.3533 72.3122 35.9478 72.3122 33.175C72.3122 29.2197 69.0753 26 65.0938 26C61.1157 26 57.8754 29.2186 57.8754 33.175C57.8754 35.9332 59.4526 38.3297 61.7574 39.5291C50.3553 40.7386 41.2512 48.2673 38.2628 58.4723C28.6504 60.4241 14 64.8802 14 73.9026C14.0011 80.9642 23.2623 85.9999 36.149 88.8973Z" fill="white"/>
<path fill-rule="evenodd" clip-rule="evenodd" d="M36.1482 89.2755C38.3682 95.9547 51.7549 99.439 64.9993 99.439C78.2437 99.439 91.6304 95.9547 93.8504 89.2755C106.734 86.3606 115.996 81.2947 115.996 74.1907C115.996 67.4403 107.172 61.8332 91.7389 58.6766C88.7664 48.4509 79.726 40.8961 68.3932 39.6285C70.7149 38.4276 72.3101 36.0076 72.3101 33.2182C72.3101 29.2391 69.0733 26 65.0919 26C61.114 26 57.8738 29.2379 57.8738 33.2182C57.8738 35.9929 59.451 38.4038 61.7557 39.6104C50.354 40.8272 41.2502 48.4012 38.262 58.6675C28.6498 60.6311 14 65.114 14 74.1907C14.0011 81.2947 23.2619 86.3606 36.1482 89.2755ZM64.9993 93.7618C57.0581 93.7618 51.1019 92.5699 47.1658 91.1509C52.8937 91.848 58.9539 92.2039 64.9993 92.2039C71.0436 92.2039 77.1026 91.8491 82.8328 91.1509C78.8967 92.5699 72.9394 93.7618 64.9993 93.7618ZM65.0919 31.6783C65.9415 31.6783 66.6318 32.3686 66.6318 33.2182C66.6318 34.0666 65.9415 34.7558 65.0919 34.7558C64.2424 34.7558 63.5521 34.0666 63.5521 33.2182C63.5521 32.3697 64.2424 31.6783 65.0919 31.6783ZM62.1602 45.2842V45.7677C62.1602 47.3359 63.4312 48.6069 65.0004 48.6069C66.5674 48.6069 67.8384 47.3359 67.8384 45.7677V45.2842C79.0018 46.5281 87.1113 55.0308 87.1113 66.0563C87.1113 67.6594 82.4905 70.6906 65.0016 70.6906C47.5103 70.6906 42.8895 67.6594 42.8895 66.0563C42.8873 55.0308 50.9968 46.5281 62.1602 45.2842ZM37.2452 64.7073C37.2226 65.1536 37.2102 65.6032 37.2102 66.0563C37.2102 75.3013 53.0711 76.3689 65.0004 76.3689C76.9298 76.3689 92.7885 75.3013 92.7885 66.0563C92.7885 65.6032 92.7772 65.1525 92.7557 64.7073C104.292 67.377 110.32 71.3561 110.32 74.1918C110.32 79.2227 92.6653 86.5267 65.0016 86.5267C37.3356 86.5267 19.6805 79.2227 19.6805 74.1918C19.6783 71.3719 25.709 67.3759 37.2452 64.7073ZM50.493 63.6656C50.7799 63.756 51.0714 63.8 51.3584 63.8C52.5593 63.8 53.6755 63.0295 54.0619 61.8229C55.1409 58.4404 56.3057 57.0869 59.051 56.0306C60.5141 55.4679 61.2439 53.8264 60.6813 52.3633C60.1187 50.8991 58.4771 50.1704 57.0118 50.733C51.93 52.6875 49.9947 55.8893 48.6537 60.0978C48.1769 61.5913 48.9994 63.1888 50.493 63.6656ZM89.1415 80.6406C88.9359 80.6846 88.7314 80.7072 88.528 80.7072C87.2265 80.7072 86.0527 79.8057 85.7601 78.4771C85.4223 76.9473 86.3894 75.43 87.9202 75.0922L88.0897 75.0572C89.6341 74.7477 91.122 75.7475 91.4304 77.2851C91.7366 78.8239 90.739 80.3209 89.2037 80.627L89.1415 80.6406ZM65.3134 84.3113H65.4705C67.0397 84.3113 68.2712 83.0403 68.2712 81.4733C68.2712 79.904 66.9629 78.633 65.3936 78.633H65.3541C63.8052 78.633 62.5387 79.878 62.5161 81.4337C62.4935 83.0007 63.7464 84.2887 65.3134 84.3113ZM53.4044 83.5474L53.2959 83.5361C51.738 83.3621 50.615 81.959 50.7878 80.401C50.9618 78.843 52.3718 77.7155 53.923 77.894L54.0484 77.9076C55.6063 78.0861 56.7248 79.4938 56.5463 81.0495C56.3814 82.5001 55.1522 83.5678 53.7286 83.5678C53.6224 83.5678 53.5129 83.561 53.4044 83.5474ZM41.4468 81.6902L41.5372 81.7083C41.7248 81.7456 41.9123 81.7659 42.0976 81.7659C43.4217 81.7659 44.6068 80.8327 44.878 79.4826C45.1841 77.945 44.1877 76.448 42.6512 76.1396L42.5122 76.1136C40.9723 75.8221 39.4844 76.831 39.1918 78.372C38.8958 79.9085 39.9058 81.3965 41.4468 81.6902ZM77.5703 83.2254C77.3941 83.2582 77.219 83.274 77.0473 83.274C75.7062 83.274 74.5143 82.3182 74.2601 80.9523C73.9731 79.4113 74.9911 77.929 76.5332 77.6443L76.6484 77.6217C78.1917 77.3325 79.6717 78.3527 79.9587 79.8948C80.2457 81.4359 79.2277 82.9181 77.6856 83.2028L77.5703 83.2254Z" fill="black"/>
</svg>
