<svg width="85" height="84" viewBox="0 0 85 84" fill="none" xmlns="http://www.w3.org/2000/svg">
<path fill-rule="evenodd" clip-rule="evenodd" d="M0 0H1.66556C24.6041 0 43.2656 18.6615 43.2656 41.6C43.2656 64.5385 24.6041 83.2 1.66556 83.2H0V0ZM3.33112 70.0019V79.8382C23.0755 78.9854 38.9898 63.106 39.8988 43.372H19.4186V39.8224L39.8988 39.8274C38.9901 20.0987 23.0755 4.21439 3.33112 3.36635V13.2027H14.0916V16.7523H3.33112V39.8221H12.3144V43.3718H3.33112V48.6988H30.0669V52.2484H3.33112V66.4522H13.6803V70.0019H3.33112ZM46.9258 41.6005C46.9258 35.7302 51.7044 30.9517 57.5747 30.9517C63.45 30.9517 68.2285 35.7302 68.2285 41.6005C68.2285 47.4708 63.45 52.2493 57.5747 52.2493C51.7044 52.2493 46.9258 47.4708 46.9258 41.6005ZM50.4755 41.6001C50.4755 45.5153 53.6595 48.6993 57.5747 48.6993C61.4899 48.6993 64.6789 45.5153 64.6738 41.6001C64.6738 37.6849 61.4899 34.501 57.5747 34.501C53.6595 34.501 50.4755 37.6849 50.4755 41.6001ZM84.2 41.6C84.2 48.6992 73.5511 48.6992 73.5511 41.6C73.5511 34.5008 84.2 34.5008 84.2 41.6ZM48.7031 62.8979H43.3761V68.2249H48.7031V62.8979ZM78.8778 9.65381H84.2048V14.9808H78.8778V9.65381ZM24.7454 13.2028H19.4184V16.7524H24.7454V13.2028Z" fill="black"/>
</svg>
