<svg width="68" height="68" viewBox="0 0 68 68" fill="none" xmlns="http://www.w3.org/2000/svg">
<path d="M67.1224 33.5557C67.1224 27.6397 65.5989 21.9573 62.745 16.9508C64.5376 14.0868 65.8376 11.563 66.645 9.39967C66.6958 9.25748 66.7466 9.12038 66.7973 8.98327C66.8938 8.70904 66.9802 8.43991 67.0614 8.17585C67.102 8.04382 67.1376 7.91179 67.1731 7.78484C67.2087 7.65788 67.2442 7.53093 67.2747 7.40397C67.4626 6.64734 67.5794 5.94655 67.6149 5.30162C67.62 5.19498 67.6251 5.08834 67.6302 4.9817C67.6352 4.78873 67.6302 4.60084 67.62 4.4231C67.5489 3.15357 67.1325 2.13289 66.3708 1.37109C63.8927 -1.10697 58.7231 0.0710912 50.9944 4.86484C46.414 2.07192 41.2241 0.421441 35.7857 0.0710913C35.7501 0.0710913 35.7146 0.0660131 35.679 0.0660131C35.3845 0.0457006 35.09 0.0355437 34.7954 0.0253881C34.7193 0.020309 34.6482 0.0203097 34.572 0.0152319C34.2368 0.00507629 33.9017 0 33.5615 0C24.5986 0 16.1687 3.48868 9.83125 9.83125C3.49375 16.1687 0 24.5979 0 33.5666C0 33.8967 0.00507747 34.2217 0.0152344 34.5467C0.0203122 34.6534 0.0253906 34.7651 0.0253906 34.8717C0.0355462 35.0901 0.0457025 35.3034 0.0558594 35.5217C0.0609372 35.6538 0.0710944 35.7858 0.08125 35.9127C0.0964847 36.1006 0.111717 36.2936 0.126951 36.4815C0.137108 36.6237 0.152342 36.7709 0.167576 36.9131C0.18281 37.0756 0.203125 37.233 0.223438 37.3955C0.269142 37.8069 0.319922 38.2131 0.385938 38.6194C0.391017 38.6397 0.391016 38.6549 0.396094 38.6752C0.436719 38.9342 0.477344 39.1932 0.523047 39.4471C0.528125 39.4725 0.533202 39.4979 0.538281 39.5233C1.30507 43.8143 2.88946 47.8768 5.18474 51.5077C1.41175 58.1297 0.634741 62.6187 2.88946 64.873C3.53438 65.5179 4.35703 65.914 5.36245 66.0664C5.50464 66.0867 5.65191 66.1019 5.80424 66.1172C5.9769 66.1324 6.15463 66.1375 6.33745 66.1375C8.83085 66.1375 12.228 64.9035 16.4836 62.4457C21.4906 65.4216 27.3356 67.1329 33.5721 67.1329C52.0672 67.1227 67.1238 52.0659 67.1238 33.5565L67.1224 33.5557ZM63.9283 3.81305C64.4107 4.29547 64.6443 6.99194 60.658 13.7408C59.749 12.5017 58.7485 11.3185 57.6619 10.2013C57.6416 10.1809 57.6212 10.1606 57.606 10.1403C57.5044 10.0337 57.3978 9.92703 57.2962 9.8204C57.1693 9.69344 57.0423 9.57665 56.9205 9.44969C56.9103 9.43953 56.9002 9.42938 56.8849 9.41414C55.9963 8.55593 55.0721 7.75365 54.1123 7.00706C60.7798 3.09692 63.4509 3.33569 63.9283 3.81305ZM12.1168 12.1107C17.8448 6.38263 25.4574 3.22909 33.5616 3.22909C33.8612 3.22909 34.1608 3.23417 34.4553 3.24433C34.5467 3.24941 34.6381 3.2494 34.7295 3.25448C34.9428 3.26464 35.151 3.2748 35.3592 3.28495C35.4608 3.29003 35.5573 3.29511 35.6588 3.30526C35.8874 3.3205 36.1159 3.34081 36.3444 3.36112C36.4155 3.3662 36.4866 3.37128 36.5526 3.38144C36.8319 3.40683 37.1112 3.44237 37.3854 3.47284C37.5022 3.48807 37.6241 3.50331 37.7409 3.51855C37.9034 3.53886 38.0709 3.56425 38.2334 3.58964C38.3756 3.60995 38.5127 3.63534 38.6549 3.65565C38.787 3.67597 38.919 3.70136 39.0561 3.72675C39.6756 3.83847 40.285 3.9705 40.8944 4.11776C40.93 4.12792 40.9604 4.13299 40.996 4.14315C41.2245 4.19901 41.453 4.25995 41.6815 4.32089C41.6866 4.32089 41.6866 4.32089 41.6917 4.32597C43.8702 4.93026 45.9675 5.77326 47.953 6.84472C49.06 7.44394 50.1315 8.11424 51.1624 8.85062C52.5183 9.82053 53.803 10.9072 55.0065 12.1108C55.8597 12.9639 56.6569 13.8628 57.3932 14.792C57.4643 14.8834 57.5354 14.9748 57.6065 15.0662C57.6725 15.1526 57.7436 15.244 57.8096 15.3303C58.1499 15.7822 58.4749 16.2494 58.7948 16.7217C54.3819 23.4095 47.8615 31.1738 40.275 38.7606C32.2109 46.8297 23.934 53.695 16.9764 58.0981C16.758 58.2352 16.5447 58.3672 16.3365 58.4992C13.5791 56.5898 11.1568 54.2387 9.16625 51.5422C8.41468 50.5214 7.72403 49.455 7.09951 48.343C5.48465 45.4637 4.32687 42.3001 3.7225 38.9433C3.71742 38.9179 3.71234 38.8926 3.70726 38.8672C3.66664 38.6387 3.62601 38.4051 3.59047 38.1715C3.58539 38.1511 3.58539 38.1359 3.58031 38.1156C3.52445 37.7551 3.47875 37.3894 3.43813 37.0238C3.42289 36.8765 3.40258 36.7293 3.38735 36.582C3.37211 36.4551 3.36196 36.323 3.3518 36.1961C3.33656 36.0234 3.32133 35.8508 3.31117 35.6832C3.30102 35.5664 3.29594 35.4496 3.29086 35.3277C3.28071 35.1348 3.27055 34.9367 3.26547 34.7387C3.26039 34.6422 3.25531 34.5406 3.25531 34.4441C3.24516 34.1496 3.24008 33.8551 3.24008 33.5555C3.22992 25.4558 6.3887 17.8385 12.1168 12.1107ZM7.39919 54.609C9.09023 56.7063 11.0504 58.6105 13.2441 60.2762C13.2187 60.2914 13.1984 60.3016 13.173 60.3168C13.1019 60.3524 13.0308 60.393 12.9597 60.4285C12.6144 60.6114 12.2793 60.7739 11.9594 60.9313L11.8375 60.9922C11.6293 61.0938 11.4262 61.1852 11.2281 61.2766C7.37894 63.0183 5.6879 62.795 5.31714 62.4242C4.89058 61.9977 4.65695 59.8191 7.39919 54.609ZM33.5617 63.8867C28.5445 63.8867 23.8066 62.6629 19.6374 60.4945C20.003 60.2558 20.3737 60.0121 20.7444 59.7632C24.8373 57.0109 29.2959 53.5273 33.8458 49.5308C35.5012 48.0784 37.172 46.555 38.8376 44.9757C40.1325 43.7519 41.4274 42.4925 42.7122 41.2078C49.9333 33.9867 56.2257 26.5828 60.7237 20.0373C62.7956 24.1861 63.8874 28.787 63.8874 33.5547C63.8874 50.2818 50.2836 63.8867 33.5617 63.8867Z" fill="black"/>
</svg>
