<svg width="77" height="66" viewBox="0 0 77 66" fill="none" xmlns="http://www.w3.org/2000/svg">
<path d="M67.6553 19.4657L71.0425 16.0786C74.714 12.4071 74.719 6.42506 71.0425 2.7536C67.366 -0.917865 61.389 -0.917865 57.7175 2.7536L51.7862 8.68485C49.1609 7.9536 46.4491 7.58289 43.707 7.58289C27.366 7.58289 14.0202 20.6739 13.6185 36.9239L0.583403 47.4509C0.0654306 47.8673 -0.132609 48.5681 0.090822 49.1978C0.314253 49.8276 0.908403 50.2439 1.5736 50.2439H3.1427L3.13254 64.3814C3.13254 65.2498 3.83332 65.9505 4.70165 65.9505H72.2249C73.0933 65.9505 73.794 65.2498 73.794 64.3814L73.7991 39.255H76.9375V36.1167H73.7535C73.4437 30.0839 71.3116 24.2702 67.6553 19.4657Z" fill="white"/>
</svg>
