<svg width="130" height="130" viewBox="0 0 130 130" fill="none" xmlns="http://www.w3.org/2000/svg">
<circle cx="65" cy="65" r="65" fill="#FBB93C"/>
<path d="M35.2538 85.59C35.3248 85.7103 35.4042 85.8174 35.4909 85.9258C41.9252 95.0341 52.5238 101 64.4994 101C84.0743 101 100 85.0749 100 65.4982C100 45.9227 84.0743 30 64.4994 30C44.9245 30 29 45.9239 29 65.4982C29 72.9529 31.3133 79.8732 35.2538 85.59Z" fill="white"/>
<path d="M35.2538 85.59C35.3248 85.7103 35.4042 85.8174 35.4909 85.9258C41.9252 95.0341 52.5238 101 64.4994 101C84.0743 101 100 85.0749 100 65.4982C100 45.9227 84.0743 30 64.4994 30C44.9245 30 29 45.9239 29 65.4982C29 72.9529 31.3133 79.8732 35.2538 85.59ZM38.2723 72.9264C38.3903 73.0913 38.5142 73.255 38.6418 73.4174C38.1315 74.1444 37.5466 75.0061 36.9893 75.9942C35.7412 72.7314 35.0504 69.1942 35.0504 65.4982C35.0504 64.5907 35.0973 63.6953 35.1767 62.8095C36.343 62.3437 37.5442 61.9887 38.7706 61.7588C36.6331 64.9578 35.8363 69.4951 38.2723 72.9264ZM75.7986 92.6956C72.9702 92.6764 72.3166 92.1673 71.6402 91.6233C71.2803 91.3368 71.1154 90.9962 71.1094 90.9084C71.1443 90.7014 71.5584 90.1189 71.8075 89.7686L72.1674 89.2511C73.8764 86.7261 74.8586 83.6571 74.9368 80.6073C74.9512 80.008 74.7888 79.4158 74.4662 78.9104C71.692 74.5427 66.4335 76.5454 62.9552 77.8717C62.5857 78.0125 62.1657 78.1726 61.7264 78.3327C62.2788 77.4396 62.6591 76.3697 62.6122 75.0747C62.5063 72.3198 60.3772 69.2099 57.1191 68.9909C56.8651 68.9716 56.6256 68.9535 56.3945 68.9271C57.9363 68.7574 59.4673 68.1496 60.6781 66.7126C62.7963 64.1875 62.5604 60.4133 60.0486 56.6137L59.8957 56.3814C59.0942 55.1755 57.9989 53.5206 58.2336 52.7383C58.3395 52.3881 58.8005 51.9019 59.6021 51.2869C61.2847 50.0015 63.1514 48.9833 65.1469 48.2648L65.3118 48.2058C68.0692 47.2189 72.6861 45.5641 73.0363 41.0099C73.1519 39.455 72.6765 38.1395 72.0675 37.0359C75.0764 37.8362 77.8952 39.1059 80.4455 40.756L78.9928 42.7936C77.4763 44.919 75.9622 47.0432 74.4578 49.159C72.0627 52.4976 72.8221 55.1911 74.347 56.6149C75.2281 57.4285 76.2511 57.7174 77.025 57.8726C78.1226 58.0989 79.2516 58.2397 80.4359 58.2987C80.4756 59.6057 80.2831 60.9428 79.8738 62.1909C79.5513 63.1826 79.7607 64.2694 80.4287 65.0685C81.8622 66.7872 84.4414 67.0832 86.7029 65.7858C86.9292 65.6547 87.1519 65.5102 87.3757 65.367C87.4467 65.3201 87.5286 65.2683 87.6104 65.2166C87.7536 65.3225 87.9137 65.4489 88.0401 65.5499C88.9331 66.2576 90.2848 67.3252 92.1936 67.336C92.2033 67.3384 92.2153 67.3384 92.2261 67.3384C92.8038 67.3384 93.3707 67.2277 93.9111 67.0351C93.3117 78.6155 85.9964 88.4411 75.7986 92.6956ZM93.0349 58.2048C92.7316 58.8439 92.5246 59.4649 92.3417 60.0221C92.2285 60.3748 92.1202 60.7057 92.0059 60.9765C91.93 60.92 91.8578 60.861 91.794 60.8092C90.8613 60.0739 89.4314 58.9498 87.4383 59.034C87.1001 59.0461 86.78 59.0954 86.4791 59.1652C86.4983 58.5658 86.4863 57.9665 86.4417 57.3744C86.2516 54.6556 84.9541 53.4075 83.8601 52.8166C82.8346 52.2858 81.8224 52.2786 81.2182 52.2738C80.72 52.2666 80.2241 52.2341 79.733 52.1799C81.1244 50.2218 82.5205 48.266 83.9154 46.3091L85.1732 44.5471C88.9235 48.2468 91.6893 52.9417 93.0349 58.2048ZM64.379 36.0514C64.828 37.1093 65.4442 38.0095 65.9846 38.7713C66.3986 39.3563 67.0257 40.2433 67.0052 40.5526C66.9559 41.1917 64.1792 42.1858 63.2681 42.5131L63.1008 42.5745C60.5156 43.5048 58.1036 44.8215 55.9288 46.4848C54.6482 47.4633 53.0943 48.8582 52.4444 50.9848C51.3889 54.5003 53.3916 57.52 54.8516 59.7273L55.0044 59.9547C56.0672 61.5602 56.1586 62.6879 56.0455 62.8227C56.0034 62.8745 55.5231 63.2993 52.2591 62.2679C50.6282 61.7528 48.8409 62.2655 47.5904 63.605C46.1076 65.1961 45.6839 67.5731 46.5096 69.66C47.3629 71.8204 49.7797 74.4862 56.4343 75.0025C56.4788 75.0663 56.5233 75.1505 56.5474 75.2191C56.362 75.4983 55.8 76.0038 55.4172 76.3492C54.3473 77.3157 53.0149 78.5168 52.4059 80.3594C52.0316 81.4895 52.3541 82.7316 53.2315 83.5355C56.7014 86.7249 61.3629 84.9509 65.1096 83.5235C66.1254 83.136 67.6395 82.5595 68.6614 82.3416C68.3857 83.5969 67.8766 84.8029 67.1665 85.8535L66.8753 86.27C66.2169 87.1979 65.3961 88.3545 65.1409 89.9492C64.8701 91.6413 65.3672 93.4093 66.4552 94.8788C65.8089 94.9234 65.1578 94.9522 64.5018 94.9522C54.8612 94.9522 46.2881 90.2958 40.9142 83.1143C41.1633 80.3811 42.4872 78.4699 43.6788 76.7705L43.8437 76.5334C44.1253 76.1314 44.9762 74.9086 44.9582 73.2682C44.9185 71.6085 44.0086 70.4519 43.4633 69.7635C43.3767 69.6504 43.2876 69.5397 43.207 69.4301C42.326 68.1869 43.0349 65.9531 44.1939 64.5968L44.3251 64.4463C45.0605 63.5978 46.2929 62.1777 46.1497 60.1088C46.0185 58.1747 44.6549 56.4873 42.6774 55.817C41.3872 55.3777 40.1692 55.4475 39.0246 55.5931C38.2109 55.7014 37.4094 55.8615 36.615 56.0444C40.5495 44.4677 51.4996 36.1019 64.379 36.0514Z" fill="black"/>
</svg>
