<svg width="17" height="14" viewBox="0 0 17 14" fill="none" xmlns="http://www.w3.org/2000/svg">
<path fill-rule="evenodd" clip-rule="evenodd" d="M7.53249 6.125L0.325826 1.1325C0.526524 0.788904 0.813469 0.503675 1.15826 0.305042C1.50306 0.10641 1.89374 0.00125974 2.29166 0H13.9583C14.3566 0.00176829 14.7476 0.107583 15.0924 0.306959C15.4372 0.506335 15.7239 0.792351 15.9242 1.13667L8.71749 6.125C8.54324 6.24508 8.33661 6.30938 8.12499 6.30938C7.91337 6.30938 7.70675 6.24508 7.53249 6.125ZM15.5783 13.0783C15.1486 13.508 14.566 13.7495 13.9583 13.75H2.29167C1.68401 13.7495 1.10138 13.508 0.671701 13.0783C0.242026 12.6486 0.000441448 12.066 0 11.4583V2.42666L6.82083 7.14916C7.2046 7.41292 7.65933 7.55412 8.125 7.55412C8.59067 7.55412 9.0454 7.41292 9.42917 7.14916L16.25 2.42666V11.4583C16.2496 12.066 16.008 12.6486 15.5783 13.0783Z" fill="black"/>
</svg>
