<svg width="83" height="83" viewBox="0 0 83 83" fill="none" xmlns="http://www.w3.org/2000/svg">
<path fill-rule="evenodd" clip-rule="evenodd" d="M74.5872 0L78.2028 4.33667L82.5395 7.95223L78.2028 11.5678L74.5872 15.9045L70.9717 11.5678L66.635 7.95223L70.9717 4.33667L74.5872 0ZM74.5923 10.9941L75.9735 9.33361L77.629 7.95236L75.9685 6.57111L74.5872 4.91062L73.206 6.57111L71.5455 7.95236L73.206 9.33361L74.5923 10.9941ZM15.7014 26.8891L20.3835 21.2676L26.0049 16.5805L20.3835 11.8984L15.7014 6.27692L11.0193 11.8984L5.39786 16.5805L11.0193 21.2676L15.7014 26.8891ZM13.2487 14.1328L15.7014 11.1875L18.1541 14.1328L21.0994 16.5855L18.1541 19.0382L15.7014 21.9835L13.2487 19.0382L10.3034 16.5855L13.2487 14.1328ZM67.6611 36.0541L71.0483 32.6669C74.7197 28.9955 74.7248 23.0134 71.0483 19.3419C67.3717 15.6705 61.3947 15.6705 57.7233 19.3419L51.792 25.2732C49.1667 24.5419 46.4549 24.1712 43.7128 24.1712C27.3718 24.1712 14.026 37.2622 13.6243 53.5122L0.589163 64.0392C0.0711908 64.4556 -0.126849 65.1564 0.0965822 65.7862C0.320013 66.4159 0.914163 66.8323 1.57936 66.8323H3.14846L3.1383 80.9698C3.1383 81.8381 3.83908 82.5389 4.70741 82.5389H72.2307C73.0991 82.5389 73.7998 81.8381 73.7998 80.9698L73.8049 55.8434H76.9432V52.705H73.7592C73.4495 46.6722 71.3174 40.8585 67.6611 36.0541ZM53.3507 28.1576L56.6108 24.8975C56.5601 25.2631 56.5296 25.6338 56.5296 26.0096C56.5296 30.3462 60.0436 33.8604 64.3804 33.8604C64.7562 33.8604 65.1269 33.8299 65.4925 33.7792L58.1598 41.1119C56.9715 42.3002 55.3973 42.9503 53.7164 42.9503C52.0405 42.9503 50.4613 42.2952 49.273 41.1119C48.0847 39.9237 47.4346 38.3494 47.4346 36.6685C47.4346 34.9927 48.0897 33.4135 49.273 32.2251L53.3507 28.1576ZM43.7073 27.3146C45.5608 27.3146 47.394 27.5025 49.1917 27.8732L47.059 30.006C43.3875 33.6775 43.3824 39.6596 47.059 43.331C48.8414 45.1084 51.2078 46.0884 53.7215 46.0884C56.2402 46.0884 58.6066 45.1084 60.384 43.331L65.4215 38.2935C68.509 42.483 70.3167 47.5001 70.6215 52.7001L29.834 52.7052H16.7937C17.6112 38.5677 29.3719 27.3146 43.7073 27.3146ZM24.6948 64.0188C24.674 64.0327 24.6556 64.0489 24.6364 64.0658L24.6361 64.0661C24.6272 64.0739 24.6181 64.0819 24.6085 64.0899L24.6017 64.0964L24.5929 64.1041L24.5856 64.1102L24.5744 64.1197C24.5706 64.1231 24.5667 64.1267 24.5628 64.1306L24.4815 64.2118C24.4764 64.2194 24.4701 64.2258 24.4638 64.2321C24.4606 64.2353 24.4575 64.2384 24.4545 64.2417C24.4514 64.2451 24.4485 64.2486 24.446 64.2524C24.3749 64.3388 24.3089 64.4302 24.2581 64.5317C24.2556 64.5355 24.2534 64.5392 24.2514 64.543L24.2457 64.5539L24.2454 64.5546C24.2432 64.5591 24.2409 64.5635 24.2384 64.568L24.2353 64.5733L24.2327 64.5774C24.2276 64.5893 24.222 64.6011 24.2163 64.613C24.2051 64.6367 24.1938 64.6604 24.187 64.6841C24.1768 64.7044 24.1718 64.7247 24.1667 64.745C24.1616 64.7628 24.1553 64.7805 24.1489 64.7983L24.1489 64.7983C24.1451 64.8091 24.1412 64.8199 24.1377 64.8306C24.1353 64.8376 24.1331 64.8446 24.1311 64.8516L24.1159 64.9126C24.1057 64.9532 24.1007 64.9888 24.0956 65.0294C24.094 65.0357 24.0929 65.0416 24.092 65.0473L24.0905 65.0573C24.0892 65.0662 24.088 65.0751 24.0854 65.0852L24.0843 65.0983C24.0796 65.1543 24.0753 65.2064 24.0753 65.263V79.3953H16.7476V73.1137H13.6092V79.3953H6.28153V65.2682C6.28153 64.7502 6.02762 64.2881 5.63661 63.9986L15.1783 56.29L24.7201 63.9986C24.715 64.0012 24.7112 64.005 24.7074 64.0087C24.7037 64.0125 24.6999 64.0163 24.6948 64.0188ZM38.7361 79.4004H27.2189V66.8371H38.7361V79.4004ZM29.3466 63.6938L19.627 55.843H29.2856L39.0052 63.6938H29.3466ZM62.0299 79.4004H55.7483V66.8371H62.0299V79.4004ZM70.6677 79.4004H65.1732L65.1681 65.2681C65.1681 64.3998 64.4673 63.699 63.599 63.699H54.1791C53.3107 63.699 52.61 64.3998 52.61 65.2681V79.4004H41.8799V66.8371H43.449C44.1142 66.8371 44.7084 66.4156 44.9318 65.791C45.1552 65.1613 44.9572 64.4657 44.4392 64.0441L34.288 55.8429H70.6724L70.6677 79.4004ZM29.0108 8.73459C29.0108 10.8268 25.8725 10.8268 25.8725 8.73459C25.8725 6.6373 29.0108 6.6373 29.0108 8.73459ZM76.9483 35.4301C76.9483 37.5223 73.8049 37.5223 73.8049 35.4301C73.8049 33.3378 76.9483 33.3378 76.9483 35.4301ZM9.425 33.8558C9.425 36.4557 7.3125 38.5682 4.7125 38.5682C2.1125 38.5682 0 36.4557 0 33.8558C0 31.2557 2.1125 29.1432 4.7125 29.1432C7.3125 29.1432 9.425 31.2557 9.425 33.8558ZM6.2816 33.8558C6.2816 32.9925 5.58086 32.2866 4.7125 32.2866C3.84418 32.2866 3.13832 32.9925 3.1434 33.8558C3.1434 34.719 3.84414 35.4249 4.7125 35.4249C5.57574 35.4249 6.2816 34.7241 6.2816 33.8558ZM48.6785 18.1544C51.2785 18.1544 53.391 16.0419 53.391 13.4419C53.391 10.8419 51.2785 8.72937 48.6785 8.72937C46.0785 8.72937 43.966 10.8419 43.966 13.4419C43.9711 16.0419 46.0836 18.1544 48.6785 18.1544ZM48.6785 11.8728C49.5469 11.8728 50.2476 12.5786 50.2476 13.4419C50.2476 14.3102 49.5417 15.011 48.6785 15.011C47.8101 15.011 47.1094 14.3051 47.1094 13.4419C47.1094 12.5786 47.8153 11.8728 48.6785 11.8728Z" fill="black"/>
</svg>
