<svg width="89" height="91" viewBox="0 0 89 91" fill="none" xmlns="http://www.w3.org/2000/svg">
<path fill-rule="evenodd" clip-rule="evenodd" d="M18.6926 24.0703L22.948 16.2906L30.7277 12.0351L22.948 7.77972L18.6926 0L14.4372 7.77972L6.65743 12.0351L14.4372 16.2906L18.6926 24.0703ZM16.9406 10.2838L18.6926 7.07954L20.4446 10.2838L23.6488 12.0358L20.4446 13.7878L18.6926 16.992L16.9406 13.7878L13.7363 12.0358L16.9406 10.2838ZM78.1534 6.94137C78.1534 4.12804 80.4436 1.8429 83.2519 1.8429C86.0601 1.8429 88.3453 4.12804 88.3504 6.94137C88.3504 9.75469 86.0601 12.0398 83.2519 12.0398C80.4386 12.0398 78.1534 9.74963 78.1534 6.94137ZM81.5507 6.94137C81.5507 7.87575 82.3175 8.63748 83.2519 8.63748C84.1863 8.63748 84.948 7.87574 84.9531 6.94137C84.9531 6.00191 84.1863 5.24019 83.2519 5.24019C82.3124 5.24019 81.5507 6.00191 81.5507 6.94137ZM69.1141 61.0644H64.879C60.147 67.5441 52.4934 71.7643 43.8758 71.7694C29.5404 71.7694 17.881 60.1045 17.881 45.7746H14.9915V42.3773H18.0993C18.3227 40.6303 18.7239 38.9241 19.2926 37.2788H17.7235V33.8815H20.745C21.9688 31.5151 23.5582 29.3265 25.493 27.3917C30.4044 22.481 36.9293 19.7795 43.8711 19.7795C49.8019 19.7795 55.4235 21.7549 59.9989 25.3858H65.3563V28.7831H63.5485C67.6365 33.5053 69.8657 39.467 69.8657 45.7741C69.8657 46.9268 69.7896 48.0592 69.6423 49.1713H72.1763V52.5686H68.9617C68.4793 54.3511 67.8141 56.0573 66.9813 57.6671H69.1141V61.0644ZM21.0651 45.7741C21.0651 58.3475 31.2924 68.58 43.871 68.58L43.8692 68.5796C50.5725 68.5796 56.6054 65.675 60.7796 61.0641H55.7624V57.6668H63.3237C64.2936 56.0823 65.0808 54.371 65.6444 52.5683H48.968V49.171L66.427 49.1761C66.5946 48.069 66.6809 46.9315 66.6809 45.7788C66.6809 39.6855 64.3095 33.9573 60.0032 29.651C59.7087 29.3514 59.404 29.067 59.0942 28.7877H53.4067V25.3904H54.1278C50.9846 23.806 47.4959 22.9682 43.8751 22.9682C37.7818 22.9682 32.0536 25.3396 27.7473 29.6459C26.4575 30.9408 25.3403 32.3626 24.4059 33.881H37.35V37.2783H22.6951C22.0401 38.9134 21.5729 40.6197 21.3139 42.3768H33.9483V45.7741H21.0651ZM2.23951 71.3067C3.6868 69.8645 5.60638 69.0672 7.64777 69.0672C11.8626 69.0672 15.2953 72.495 15.2851 76.715C15.2851 80.9298 11.8574 84.3575 7.64257 84.3575C3.42771 84.3575 0 80.9298 0 76.715C0 74.6684 0.79729 72.7489 2.23951 71.3067ZM3.40249 76.7148C3.40249 79.0559 5.30673 80.9601 7.64777 80.9601C9.98868 80.9601 11.8982 79.0558 11.8982 76.7148C11.8982 74.3738 9.99392 72.4695 7.65288 72.4695C6.51538 72.4695 5.44898 72.9113 4.64663 73.7137C3.84428 74.516 3.40249 75.5824 3.40249 76.7148ZM26.6408 78.2946C23.3603 78.2946 20.6943 80.9606 20.6943 84.241C20.6943 87.5214 23.3603 90.1875 26.6408 90.1875C29.9212 90.1875 32.5872 87.5214 32.5872 84.241C32.5872 80.9606 29.9212 78.2946 26.6408 78.2946ZM26.6408 86.7903C25.2342 86.7903 24.0916 85.6477 24.0916 84.2411C24.0916 82.8345 25.2342 81.692 26.6408 81.692C28.0474 81.692 29.1899 82.8345 29.1899 84.2411C29.1899 85.6427 28.0474 86.7903 26.6408 86.7903ZM37.3801 17.1335C40.1883 17.1335 42.4785 14.8483 42.4785 12.035C42.4785 9.22674 40.1934 6.93652 37.3801 6.93652C34.5718 6.93652 32.2816 9.22167 32.2816 12.035C32.2816 14.8483 34.5667 17.1335 37.3801 17.1335ZM37.3801 10.3389C38.3144 10.3389 39.0812 11.1006 39.0812 12.0401C39.0812 12.9744 38.3195 13.7362 37.3801 13.7362C36.4457 13.7362 35.6789 12.9745 35.6789 12.0401C35.6789 11.1006 36.4406 10.3389 37.3801 10.3389ZM71.1707 9.97803C75.8629 9.97803 79.6665 13.7816 79.6665 18.4738C79.6665 20.6675 78.8342 22.6728 77.4631 24.1811C81.5866 30.5641 83.7955 37.9981 83.7955 45.7728C83.7955 56.4367 79.6416 66.4613 72.1006 74.0023C64.5593 81.5383 54.5351 85.6922 43.8711 85.6922V82.2949C53.6263 82.2949 62.7969 78.4964 69.693 71.6003C76.5942 64.6999 80.3926 55.5283 80.3926 45.7732C80.3926 38.7304 78.4122 31.9918 74.7153 26.1926C73.6336 26.6903 72.4352 26.9695 71.1707 26.9695C66.4785 26.9695 62.675 23.166 62.675 18.4738C62.675 13.7816 66.4785 9.97803 71.1707 9.97803ZM52.7723 57.6623H44.2766V61.0596H52.7723V57.6623Z" fill="black"/>
</svg>
