<svg width="17" height="18" viewBox="0 0 17 18" fill="none" xmlns="http://www.w3.org/2000/svg">
<path fill-rule="evenodd" clip-rule="evenodd" d="M3.41421 0.585786C2.63316 -0.195262 1.36683 -0.195262 0.585786 0.585786C-0.195262 1.36683 -0.195262 2.63316 0.585786 3.41421L13.3137 16.1421C14.0947 16.9232 15.3611 16.9232 16.1421 16.1421C16.9232 15.3611 16.9232 14.0947 16.1421 13.3137L3.41421 0.585786ZM3.41421 11.5858C2.63316 10.8047 1.36683 10.8047 0.585786 11.5858C-0.195262 12.3668 -0.195262 13.6332 0.585786 14.4142L2.70711 16.5355C3.48815 17.3166 4.75448 17.3166 5.53553 16.5355C6.31658 15.7545 6.31658 14.4881 5.53553 13.7071L3.41421 11.5858Z" fill="black"/>
</svg>
