<svg width="73" height="87" viewBox="0 0 73 87" fill="none" xmlns="http://www.w3.org/2000/svg">
<path d="M60.7595 11.441C68.1228 18.8042 72.1853 28.5949 72.1954 39.0101L72.1953 63.9901L72.1902 84.7641C72.1902 85.6781 71.4488 86.4246 70.5297 86.4246H5.70779C5.62654 86.4246 5.5453 86.4144 5.46912 86.4043C5.45897 86.4043 5.44881 86.3992 5.43865 86.3992C5.36249 86.3839 5.28632 86.3687 5.21522 86.3433C5.19999 86.3382 5.18983 86.3382 5.17968 86.3332C5.10859 86.3129 5.03749 86.2824 4.9664 86.2468C4.96134 86.2418 4.95123 86.2367 4.94111 86.2316L4.94101 86.2316C4.86991 86.191 4.8039 86.1504 4.73788 86.1046C4.73788 86.0996 4.7328 86.0996 4.7328 86.0996C4.72265 86.0945 4.71757 86.0894 4.71249 86.0843C4.68083 86.0617 4.64513 86.031 4.61259 86.0031L4.60077 85.9929C4.58554 85.9828 4.57538 85.9675 4.56015 85.9574L4.56005 85.9573C4.52454 85.9218 4.4941 85.8913 4.46366 85.8558C4.45351 85.8457 4.44843 85.8355 4.43827 85.8253C4.39765 85.7796 4.3621 85.7339 4.33163 85.6832C4.32148 85.673 4.3164 85.6628 4.31132 85.6527C4.28593 85.6121 4.26054 85.5714 4.24022 85.5308C4.23515 85.5156 4.22499 85.5003 4.21991 85.4851C4.1996 85.4445 4.17929 85.4039 4.16405 85.3581C4.15898 85.348 4.1539 85.3328 4.14882 85.3226C4.12851 85.2667 4.11327 85.2109 4.09804 85.155C4.09804 85.1449 4.09804 85.1296 4.09296 85.1195C4.08788 85.089 4.07773 85.0535 4.07265 85.0179C4.06757 85.0078 4.06757 84.9925 4.06757 84.9824C4.06757 84.9671 4.06249 84.9468 4.06249 84.9265L4.0611 84.9141C4.05652 84.8733 4.05233 84.836 4.05233 84.7945V84.764V63.99C4.05233 63.2638 4.51953 62.6239 5.20507 62.4056L8.59222 61.3189C3.04174 55.2102 0 47.3692 0 39.0563C0 30.7636 3.0316 22.9328 8.56167 16.8289L4.34681 12.6141L5.51985 11.441C12.8987 4.0625 22.7092 0 33.1397 0C43.5748 0 53.3809 4.0625 60.7595 11.441Z" fill="white"/>
</svg>
