<svg width="17" height="16" viewBox="0 0 17 16" fill="none" xmlns="http://www.w3.org/2000/svg">
<path d="M9.24162 0.378827C8.97311 0.135051 8.62344 0 8.26078 0C7.89812 0 7.54846 0.135051 7.27995 0.378827L0.477449 6.56716C0.259682 6.76509 0.106892 7.02428 0.0391571 7.31066C-0.0285781 7.59704 -0.00808918 7.89721 0.0979314 8.17172C0.203952 8.44624 0.390544 8.68226 0.633187 8.84877C0.875829 9.01528 1.16317 9.10448 1.45745 9.10466H1.72662C1.78187 9.10466 1.83486 9.12661 1.87393 9.16568C1.913 9.20475 1.93495 9.25774 1.93495 9.31299V14.1613C1.93517 14.548 2.08889 14.9188 2.36233 15.1923C2.63577 15.4657 3.00658 15.6194 3.39328 15.6197H5.75245C5.97346 15.6197 6.18542 15.5319 6.3417 15.3756C6.49799 15.2193 6.58578 15.0073 6.58578 14.7863V12.0872C6.57568 11.6786 6.70953 11.2794 6.96392 10.9595C7.21832 10.6396 7.57707 10.4193 7.97745 10.3372C8.21789 10.2963 8.46433 10.3084 8.69962 10.3726C8.9349 10.4367 9.15337 10.5514 9.3398 10.7087C9.52622 10.8659 9.67612 11.0619 9.77905 11.283C9.88198 11.5041 9.93547 11.745 9.93578 11.9888V14.7797C9.93578 15.0007 10.0236 15.2126 10.1799 15.3689C10.3361 15.5252 10.5481 15.613 10.7691 15.613H13.1283C13.515 15.6128 13.8858 15.4591 14.1592 15.1856C14.4327 14.9122 14.5864 14.5414 14.5866 14.1547V9.30966C14.5866 9.25441 14.6086 9.20142 14.6476 9.16235C14.6867 9.12328 14.7397 9.10133 14.7949 9.10133H15.0633C15.357 9.10075 15.6436 9.01151 15.8858 8.8453C16.1279 8.67908 16.3142 8.44363 16.4203 8.16977C16.5264 7.89591 16.5473 7.5964 16.4803 7.31045C16.4134 7.0245 16.2616 6.76543 16.045 6.56716L9.24162 0.378827Z" fill="black"/>
</svg>
