<svg width="77" height="66" viewBox="0 0 77 66" fill="none" xmlns="http://www.w3.org/2000/svg">
<path d="M67.6553 19.4657L71.0425 16.0786C74.714 12.4071 74.719 6.42506 71.0425 2.7536C67.366 -0.917865 61.389 -0.917865 57.7175 2.7536L51.7862 8.68485C49.1609 7.9536 46.4491 7.58289 43.707 7.58289C27.366 7.58289 14.0202 20.6739 13.6185 36.9239L0.583403 47.4509C0.0654306 47.8673 -0.132609 48.5681 0.090822 49.1978C0.314253 49.8276 0.908403 50.2439 1.5736 50.2439H3.1427L3.13254 64.3814C3.13254 65.2498 3.83332 65.9505 4.70165 65.9505H72.2249C73.0933 65.9505 73.794 65.2498 73.794 64.3814L73.7991 39.255H76.9375V36.1167H73.7535C73.4437 30.0839 71.3116 24.2702 67.6553 19.4657ZM53.3449 11.5693L56.6051 8.30914C56.5543 8.67477 56.5238 9.04548 56.5238 9.42126C56.5238 13.7579 60.0379 17.2721 64.3747 17.2721C64.7504 17.2721 65.1212 17.2416 65.4868 17.1908L58.154 24.5236C56.9657 25.7119 55.3915 26.362 53.7106 26.362C52.0348 26.362 50.4555 25.7069 49.2672 24.5236C48.0789 23.3353 47.4289 21.7611 47.4289 20.0802C47.4289 18.4044 48.0839 16.8252 49.2672 15.6368L53.3449 11.5693ZM43.7015 10.7263C45.5551 10.7263 47.3882 10.9142 49.186 11.2849L47.0532 13.4177C43.3817 17.0892 43.3767 23.0712 47.0532 26.7427C48.8356 28.5201 51.202 29.5001 53.7157 29.5001C56.2345 29.5001 58.6008 28.52 60.3782 26.7427L65.4157 21.7052C68.5032 25.8947 70.311 30.9118 70.6157 36.1118L29.8282 36.1169H16.7879C17.6055 21.9794 29.3662 10.7263 43.7015 10.7263ZM24.689 47.4305C24.6586 47.4508 24.6332 47.4762 24.6027 47.5016C24.5875 47.5168 24.5722 47.527 24.557 47.5422C24.5316 47.5676 24.5012 47.5981 24.4758 47.6235C24.4656 47.6387 24.4504 47.6489 24.4402 47.6641C24.3691 47.7504 24.3031 47.8419 24.2523 47.9434C24.2422 47.9586 24.2371 47.9739 24.2269 47.9891C24.2117 48.0247 24.1914 48.0602 24.1812 48.0958C24.1711 48.1161 24.166 48.1364 24.1609 48.1567C24.1508 48.1922 24.1355 48.2278 24.1254 48.2633L24.1101 48.3243C24.1 48.3649 24.0949 48.4004 24.0898 48.4411C24.0847 48.4614 24.0847 48.4766 24.0797 48.4969C24.0746 48.5579 24.0695 48.6137 24.0695 48.6747V62.807H16.7418V56.5254H13.6035V62.807H6.27577V48.6799C6.27577 48.1619 6.02186 47.6998 5.63085 47.4103L15.1726 39.7017L24.7143 47.4103C24.7042 47.4154 24.6992 47.4254 24.689 47.4305ZM38.7303 62.8121H27.2131V50.2488H38.7303V62.8121ZM29.3408 47.1055L19.6213 39.2547H29.2799L38.9994 47.1055H29.3408ZM62.0241 62.8121H55.7425V50.2488H62.0241V62.8121ZM70.662 62.8121H65.1674L65.1623 48.6798C65.1623 47.8115 64.4615 47.1107 63.5932 47.1107H54.1733C53.3049 47.1107 52.6042 47.8115 52.6042 48.6798V62.8121H41.8741V50.2488H43.4432C44.1085 50.2488 44.7026 49.8273 44.926 49.2027C45.1495 48.573 44.9514 47.8773 44.4334 47.4557L34.2822 39.2546H70.6666L70.662 62.8121Z" fill="black"/>
</svg>
