<svg width="80" height="87" viewBox="0 0 80 87" fill="none" xmlns="http://www.w3.org/2000/svg">
<path fill-rule="evenodd" clip-rule="evenodd" d="M68.8949 56.0162C69.6363 56.9506 70.337 57.8138 71.0175 58.6517L71.0198 58.6546C76.6144 65.5442 79.9962 69.7087 79.9911 79.9956C79.9911 80.9553 79.2142 81.7323 78.2544 81.7323H41.727V86.9475H38.2485V81.7323H1.73667C0.776957 81.7323 0 80.9554 0 79.9956C0 69.7021 3.37688 65.5381 8.97806 58.647C9.1806 58.3957 9.38588 58.1417 9.59404 57.8842C10.08 57.2829 10.5816 56.6621 11.1007 56.0115C18.1338 47.1806 21.8206 35.5824 22.3233 33.9219C22.3233 33.9118 22.3246 33.9016 22.3259 33.8915C22.3272 33.8813 22.3284 33.8711 22.3284 33.861V33.8508C22.3303 33.8354 22.335 33.7946 22.3425 33.7315C22.4374 32.9228 22.962 28.4536 23.2069 26.838C23.8265 22.7196 25.0199 16.7172 27.173 11.5071C30.3265 3.87465 34.6429 0 39.9953 0C43.7125 0 48.9836 1.99576 52.9851 11.502C55.7222 18.0322 56.6008 24.9587 56.8039 26.9239C56.9501 28.3518 57.4642 32.2782 57.6213 33.4778C57.6497 33.6946 57.6664 33.8224 57.6672 33.8302V33.8505C57.6672 33.8632 57.6684 33.8759 57.6697 33.8886C57.671 33.9012 57.6722 33.9139 57.6722 33.9266C58.1749 35.5867 61.8616 47.1853 68.8949 56.0162ZM29.9606 13.9135C28.2086 18.5452 27.1931 23.7197 26.6446 27.3607C26.4872 28.3764 26.2075 30.6558 26.0095 32.3163H53.9543C53.7359 30.6405 53.4465 28.3402 53.3348 27.2788C52.9742 23.7499 51.9637 18.5144 50.1965 13.9135H29.9606ZM13.8218 58.1852C13.0652 59.1297 12.3594 60.0032 11.6738 60.8461L11.6701 60.8507C6.57923 67.1199 3.85308 70.477 3.50786 78.2599L22.3176 78.265V43.789C20.3676 48.1762 17.5593 53.4929 13.8218 58.1852ZM25.7905 35.7964V78.2596H38.2471V35.7964H25.7905ZM54.1978 35.7964H41.7259V78.2596H54.1978V35.7964ZM57.6769 43.7888V78.2596L76.4862 78.2634C76.141 70.4751 73.4148 67.1184 68.3227 60.8486L68.3207 60.846L68.2324 60.7374C67.5742 59.928 66.892 59.0891 66.1727 58.185C62.4352 53.4983 59.6269 48.1814 57.6769 43.7888ZM31.8303 18.7678H48.3286C49.1361 21.9112 49.6234 24.8921 49.8469 27.101C49.8543 27.1792 49.8645 27.2656 49.8754 27.3582C49.8794 27.3919 49.8834 27.4263 49.8875 27.4616H30.0885C30.0992 27.3687 30.1124 27.2808 30.1246 27.1998C30.1298 27.1656 30.1348 27.1326 30.1393 27.101C30.4693 24.9225 31.0026 21.9314 31.8303 18.7678Z" fill="black"/>
</svg>
