<svg width="90" height="90" viewBox="0 0 90 90" fill="none" xmlns="http://www.w3.org/2000/svg">
<path fill-rule="evenodd" clip-rule="evenodd" d="M65.2949 8.63278H61.8418V6.04292H59.252V2.58986H61.8418V0H65.2949V2.58986H67.8847V6.04292H65.2949V8.63278ZM22.1255 10.3592H25.5786V7.7693H28.1684V4.31624H25.5786V1.72638H22.1255V4.31624H19.5356V7.7693H22.1255V10.3592ZM75.0547 26.5636C77.9086 31.5701 79.4321 37.2525 79.4321 43.1685L79.4335 43.1693C79.4335 61.6787 64.3769 76.7355 45.8818 76.7457C39.6453 76.7457 33.8003 75.0344 28.7933 72.0585C24.5377 74.5163 21.1405 75.7503 18.6471 75.7503C18.4643 75.7503 18.2866 75.7452 18.1139 75.73C17.9616 75.7147 17.8143 75.6995 17.6721 75.6792C16.6667 75.5268 15.8441 75.1307 15.1992 74.4858C12.9444 72.2315 13.7214 67.7425 17.4944 61.1205C15.1992 57.4896 13.6148 53.4271 12.848 49.1361L12.8327 49.0599C12.787 48.806 12.7464 48.547 12.7058 48.288C12.7043 48.2823 12.7033 48.2769 12.7025 48.2718L12.7015 48.2659L12.7007 48.2601C12.6994 48.2512 12.6982 48.2423 12.6956 48.2322C12.6296 47.8259 12.5788 47.4197 12.5331 47.0083L12.527 46.9595C12.5088 46.8142 12.491 46.6721 12.4773 46.5259C12.462 46.3837 12.4468 46.2365 12.4366 46.0943L12.4138 45.8106L12.3909 45.5255C12.3808 45.3986 12.3706 45.2665 12.3656 45.1345L12.3351 44.4845C12.3351 44.3779 12.33 44.2662 12.3249 44.1595C12.3148 43.8345 12.3097 43.5095 12.3097 43.1794C12.3097 34.2107 15.8034 25.7815 22.1409 19.444C28.4784 13.1015 36.9083 9.61279 45.8711 9.61279C46.2114 9.61279 46.5465 9.61787 46.8817 9.62803C46.9198 9.63056 46.9566 9.63183 46.9934 9.6331C47.0302 9.63437 47.067 9.63564 47.1051 9.63818C47.3997 9.64834 47.6942 9.65849 47.9887 9.67881C48.0065 9.67881 48.0243 9.68008 48.042 9.68134C48.0598 9.68262 48.0776 9.68388 48.0954 9.68388C53.5338 10.0342 58.7236 11.6847 63.3041 14.4776C71.0328 9.68388 76.2024 8.50582 78.6805 10.9839C79.4422 11.7457 79.8586 12.7664 79.9297 14.0359C79.9398 14.2136 79.9449 14.4015 79.9398 14.5945L79.9246 14.9144C79.8891 15.5593 79.7723 16.2601 79.5844 17.0168C79.5539 17.1437 79.5184 17.2706 79.4829 17.3975L79.4828 17.3975L79.4828 17.3976L79.4597 17.4806L79.4595 17.4813C79.4315 17.5821 79.4029 17.6854 79.3711 17.7886C79.2898 18.0527 79.2035 18.3218 79.107 18.5961L79.1066 18.5971C79.056 18.7339 79.0053 18.8706 78.9547 19.0125C78.1473 21.1758 76.8473 23.6996 75.0547 26.5636ZM72.9677 23.3536C76.954 16.6047 76.7204 13.9083 76.238 13.4258C75.7606 12.9485 73.0895 12.7097 66.422 16.6199C67.3818 17.3664 68.3059 18.1687 69.1946 19.0269L69.2302 19.0625C69.303 19.1383 69.3776 19.2106 69.4529 19.2835C69.5037 19.3326 69.5548 19.3821 69.6059 19.4332C69.6567 19.4865 69.7087 19.5398 69.7608 19.5931C69.8128 19.6464 69.8649 19.6998 69.9157 19.7531C69.9309 19.7734 69.9512 19.7937 69.9714 19.8139L69.9716 19.814C71.0582 20.9313 72.0587 22.1145 72.9677 23.3536ZM25.5538 69.889C23.3601 68.2233 21.3999 66.3191 19.7089 64.2218C16.9666 69.4319 17.2003 71.6105 17.6268 72.037C17.9976 72.4078 19.6886 72.6311 23.5378 70.8894L23.6749 70.8263C23.8293 70.7555 23.9867 70.6833 24.1472 70.605L24.2691 70.5441L24.3993 70.4801C24.6796 70.3425 24.9707 70.1995 25.2694 70.0413C25.3049 70.0236 25.3403 70.0046 25.3758 69.9857L25.3758 69.9856L25.3759 69.9856L25.376 69.9855C25.4116 69.9665 25.4472 69.9474 25.4827 69.9296L25.4963 69.9216L25.5183 69.9093C25.5297 69.903 25.5411 69.8966 25.5538 69.889ZM86.6845 26.1366L84.7244 28.4929L82.7592 26.1366L80.408 24.1765L82.7592 22.2113L84.7244 19.8601L86.6845 22.2113L89.0408 24.1765L86.6845 26.1366ZM12.1987 21.6926L16.1698 16.9242L20.9382 12.948L16.1698 8.9769L12.1987 4.2085L8.22757 8.9769L3.45917 12.948L8.22757 16.9242L12.1987 21.6926ZM10.6752 11.4297L12.1987 9.60675L13.7221 11.4297L15.5451 12.9532L13.7221 14.4767L12.1987 16.2997L10.6752 14.4767L8.85221 12.9532L10.6752 11.4297ZM63.5692 77.7096H67.0223V80.2995H69.6122V83.7525H67.0223V86.3424H63.5692V83.7525H60.9794V80.2995H63.5692V77.7096ZM79.5439 68.1025L75.5728 72.8709L70.7993 76.842L75.5677 80.8182L79.5439 85.5866L83.515 80.8182L88.2834 76.842L83.515 72.8709L79.5439 68.1025ZM81.0623 78.3654L79.5388 80.1884L78.0154 78.3654L76.1924 76.847L78.0154 75.3235L79.5388 73.5005L81.0623 75.3235L82.8853 76.847L81.0623 78.3654ZM4.29611 77.5779L7.87618 73.2817L11.4563 77.5779L15.7524 81.1579L11.4563 84.738L7.87618 89.0341L4.29611 84.738L0 81.1579L4.29611 77.5779ZM7.88125 83.6462L9.0086 82.2904L10.3645 81.163L9.0086 80.0357L7.88125 78.6798L6.7539 80.0357L5.398 81.163L6.7539 82.2904L7.88125 83.6462Z" fill="white"/>
</svg>
