<svg width="550" height="142" viewBox="0 0 550 142" fill="none" xmlns="http://www.w3.org/2000/svg">
<path d="M479.129 130.27H480.372L480.919 131.38L480.92 131.381L480.92 131.381L480.921 131.383L480.922 131.384L480.922 131.385L480.932 131.403C480.937 131.414 480.945 131.428 480.954 131.446C480.965 131.467 480.979 131.492 480.995 131.522C481.056 131.632 481.152 131.802 481.285 132.019C481.551 132.453 481.961 133.07 482.518 133.767C483.638 135.171 485.311 136.846 487.558 138.047C489.687 139.184 492.378 139.693 494.702 139.89C494.456 139.549 494.2 139.181 493.936 138.786C492.797 137.082 492.213 135.517 491.914 134.347C491.765 133.763 491.687 133.277 491.647 132.922C491.626 132.744 491.615 132.598 491.609 132.488C491.606 132.433 491.605 132.388 491.604 132.351C491.603 132.333 491.603 132.317 491.603 132.303L491.603 132.285L491.603 132.277L491.603 132.274V132.272C491.603 132.271 491.603 132.27 493.603 132.27H491.603V130.27H493.603H531.164C540.765 130.27 548 123.664 548 116.14V16.1305C548 8.60611 540.765 2 531.164 2H18.8358C9.23517 2 2 8.6061 2 16.1305V116.14C2 123.664 9.23511 130.27 18.8358 130.27H479.129Z" fill="white" stroke="black" stroke-width="4"/>
</svg>
