<svg width="550" height="166" viewBox="0 0 550 166" fill="none" xmlns="http://www.w3.org/2000/svg">
<path d="M70.8711 152.626H69.5448L69.0305 153.843L69.0301 153.844L69.0295 153.846L69.0292 153.846L69.0289 153.847L69.0287 153.847L69.0155 153.877C69.0021 153.908 68.9796 153.958 68.948 154.025C68.8847 154.16 68.7853 154.365 68.6491 154.625C68.3761 155.145 67.9589 155.879 67.3938 156.706C66.2527 158.377 64.5664 160.343 62.3249 161.744C60.1538 163.1 57.3959 163.681 55.0485 163.894C55.0131 163.897 54.9779 163.9 54.9428 163.903C55.3161 163.327 55.7171 162.673 56.1375 161.937C57.2514 159.988 57.8159 158.212 58.1019 156.902C58.2449 156.246 58.3187 155.706 58.3568 155.316C58.3759 155.121 58.386 154.963 58.3914 154.846C58.3941 154.788 58.3956 154.74 58.3965 154.703C58.3969 154.685 58.3971 154.669 58.3973 154.656L58.3974 154.639L58.3974 154.632L58.3975 154.628V154.627C58.3975 154.626 58.3975 154.626 56.3975 154.626H58.3975V152.626H56.3975H18.8357C9.5396 152.626 2 145.081 2 135.769V18.8568C2 9.54492 9.53968 2 18.8357 2H531.164C540.461 2 548 9.54491 548 18.8568V135.769C548 145.081 540.461 152.626 531.164 152.626H70.8711ZM54.3975 154.611C54.3975 154.609 54.3976 154.61 54.3975 154.613L54.3975 154.611Z" fill="white" stroke="black" stroke-width="4"/>
</svg>
